<svg width="208" height="30" viewBox="0 0 208 30" fill="none" xmlns="http://www.w3.org/2000/svg">
<path d="M0.00145336 2.73073C-0.00937527 2.43403 0.0404364 2.13949 0.146557 1.86444C0.252678 1.58939 0.412941 1.3425 0.61652 1.13676C1.08865 0.725267 1.68206 0.502197 2.29496 0.502197C2.90786 0.502197 3.50127 0.727433 3.9734 1.13676C4.17481 1.34683 4.33507 1.59589 4.44336 1.87094C4.55165 2.14598 4.60795 2.44052 4.60795 2.73939C4.60795 3.03826 4.55165 3.3328 4.44336 3.60785C4.33507 3.8829 4.17481 4.13195 3.9734 4.34203C3.50343 4.75352 2.91219 4.97659 2.29929 4.97659C1.68639 4.97659 1.09515 4.75135 0.625183 4.34203C0.421604 4.13412 0.259175 3.8829 0.153054 3.60568C0.0469336 3.3263 -0.00504382 3.0296 0.00145336 2.73073ZM4.35456 23.0452H0.239683V6.89975H4.35456V23.0452Z" fill="white"/>
<path d="M7.03143 14.8957C7.03143 12.3921 7.6335 10.3802 8.83548 8.85549C9.39857 8.11481 10.1349 7.5214 10.9796 7.12291C11.8242 6.72441 12.7533 6.53383 13.6867 6.56848C14.4837 6.52733 15.2807 6.67244 16.0127 6.9908C16.7447 7.30916 17.3901 7.79428 17.9012 8.40285L18.0766 6.86519H22.0594V22.6187C22.0919 23.9289 21.7497 25.2197 21.0762 26.3459C20.4156 27.4028 19.454 28.2431 18.3149 28.7607C17.0046 29.3368 15.5839 29.6183 14.1523 29.5858C12.9439 29.5858 11.7484 29.3411 10.6352 28.8733C9.62597 28.49 8.73369 27.8511 8.04932 27.0216L9.98765 24.3708C10.4771 24.9468 11.0878 25.4081 11.7765 25.7243C12.4652 26.0405 13.2167 26.2008 13.9748 26.1965C14.971 26.2528 15.9499 25.9192 16.6992 25.2674C17.0349 24.9187 17.2948 24.5072 17.4616 24.0546C17.6283 23.6019 17.6976 23.1211 17.6673 22.6403V21.7676C17.1692 22.3285 16.5541 22.7703 15.8611 23.0648C15.1702 23.3594 14.4209 23.4958 13.6694 23.4655C12.7446 23.4893 11.8264 23.2944 10.9925 22.8937C10.1587 22.4931 9.43539 21.9018 8.8788 21.1676C7.653 19.63 7.04876 17.579 7.04876 15.0755V14.8914H7.0271L7.03143 14.8957ZM11.417 15.2076C11.3499 16.429 11.6639 17.6418 12.318 18.6792C12.5844 19.0799 12.9504 19.4091 13.3792 19.63C13.8102 19.8509 14.2888 19.9613 14.7739 19.9462C15.3457 19.9852 15.9152 19.8682 16.422 19.604C16.9288 19.3419 17.3533 18.9456 17.6478 18.4583V11.5908C17.3619 11.1057 16.944 10.7072 16.4415 10.4451C15.9391 10.1831 15.3738 10.064 14.8086 10.1029C14.3169 10.0878 13.8318 10.1982 13.3965 10.4235C12.9612 10.6487 12.593 10.9822 12.3266 11.3916C11.7224 12.247 11.417 13.514 11.417 15.2076Z" fill="white"/>
<path d="M29.0482 6.87393L29.1868 8.80143C29.7412 8.07807 30.4537 7.49766 31.268 7.10999C32.0823 6.72233 32.9768 6.53391 33.8756 6.5664C35.6038 6.5664 36.8924 7.0905 37.7284 8.13655C38.5644 9.18476 39.0062 10.7138 39.0322 12.782V23.5327H34.6769V12.886C34.7419 12.1475 34.5253 11.4111 34.077 10.8285C33.8019 10.5925 33.4836 10.4149 33.1392 10.3044C32.7949 10.194 32.4354 10.155 32.0758 10.1897C31.5171 10.168 30.9627 10.3044 30.4775 10.5882C29.9924 10.8697 29.5918 11.2855 29.3254 11.788V23.5219H24.9701V6.88476L29.0482 6.87393Z" fill="white"/>
<path d="M41.6982 2.73058C41.6874 2.43387 41.7437 2.13933 41.8606 1.86429C41.9776 1.58924 42.153 1.34235 42.3783 1.13444C42.9002 0.725113 43.5586 0.499878 44.2364 0.499878C44.9143 0.499878 45.5705 0.725113 46.0946 1.13444C46.5408 1.56108 46.7898 2.13717 46.7898 2.73707C46.7898 3.33698 46.5408 3.91306 46.0946 4.33971C45.5749 4.74903 44.9186 4.97427 44.2429 4.97427C43.5672 4.97427 42.911 4.74903 42.3912 4.33971C42.166 4.1318 41.9884 3.88058 41.8693 3.60336C41.7502 3.32615 41.6939 3.02945 41.7025 2.73058H41.6982ZM46.5105 23.0473H41.9646V6.8996H46.5105V23.0451V23.0473Z" fill="white"/>
<path d="M54.8116 2.92575V6.97349H57.5383V10.2004H54.8116V18.4345C54.7683 18.9001 54.8917 19.3679 55.1581 19.7469C55.3357 19.9029 55.5415 20.0177 55.7645 20.087C55.9876 20.1541 56.2215 20.1736 56.4511 20.1411C56.869 20.1433 57.2849 20.1108 57.6985 20.0415V23.3789C56.8625 23.6431 55.9919 23.7752 55.1191 23.773C52.1369 23.773 50.6188 22.2159 50.5646 19.1037V10.2199H48.2451V6.99298H50.5646V2.94524H54.8138V2.92358L54.8116 2.92575Z" fill="white"/>
<path d="M67.1282 23.7666C66.041 23.8078 64.956 23.6323 63.9359 23.249C62.918 22.8657 61.9868 22.2809 61.1963 21.5294C59.6694 20.0372 58.9093 18.0556 58.9093 15.5628V15.1297C58.8789 13.5877 59.2103 12.0609 59.873 10.6705C60.4686 9.41219 61.4172 8.35531 62.604 7.62979C63.8211 6.90644 65.2159 6.53827 66.6322 6.55992C68.8933 6.55992 70.6865 7.27461 71.9837 8.70832C73.281 10.142 73.9372 12.167 73.9372 14.7897V16.5937H63.3966C63.4941 17.5921 63.9532 18.5191 64.6896 19.2013C65.4433 19.8618 66.42 20.2105 67.4206 20.1758C68.1851 20.2105 68.9496 20.0589 69.6426 19.7362C70.3378 19.4135 70.9442 18.9262 71.412 18.3198L73.5842 20.7606C72.8999 21.7222 71.9686 22.4823 70.8901 22.961C69.7119 23.5089 68.4276 23.784 67.1282 23.7645V23.7666ZM66.6063 10.1507C66.2078 10.1355 65.8114 10.207 65.4433 10.3608C65.0751 10.5145 64.7459 10.7441 64.4752 11.0386C63.8818 11.7685 63.5201 12.6586 63.4335 13.5942H69.582V13.239C69.6166 12.4031 69.3329 11.5822 68.785 10.9499C68.5013 10.6748 68.1634 10.4626 67.7931 10.3261C67.4227 10.1897 67.0286 10.129 66.6344 10.1529H66.6084L66.6063 10.1507Z" fill="white"/>
<path d="M85.8076 23.0454H81.4567V-6.10352e-05H85.8076V23.0454Z" fill="white"/>
<path d="M98.4792 23.0453C98.28 22.6555 98.1349 22.1704 98.0439 21.5899C96.9936 22.7594 95.6291 23.3463 93.9485 23.3463C92.3589 23.3463 91.04 22.8872 89.9961 21.9668C88.95 21.0463 88.4281 19.8855 88.4281 18.4865C88.4281 16.7669 89.0648 15.4458 90.3404 14.5253C91.6161 13.6049 93.4591 13.1393 95.8695 13.1306H97.8642V12.1993C97.8642 11.45 97.6714 10.8479 97.2859 10.3996C96.9004 9.94916 96.294 9.72392 95.4624 9.72392C94.7325 9.72392 94.1586 9.89934 93.745 10.2502C93.3291 10.601 93.1234 11.0797 93.1234 11.6904H88.7876C88.7876 10.7505 89.0778 9.87985 89.6582 9.0807C90.2387 8.28155 91.0595 7.65349 92.1185 7.19868C93.1775 6.74388 94.3687 6.51648 95.6898 6.51648C97.6909 6.51648 99.2784 7.01893 100.454 8.02382C101.63 9.02872 102.217 10.4429 102.217 12.2622V19.2986C102.228 20.8384 102.443 22.0036 102.863 22.7941V23.0496H98.4814L98.4792 23.0453ZM94.8928 20.0306C95.5317 20.0306 96.1229 19.8877 96.6622 19.604C97.2015 19.3181 97.6021 18.9369 97.862 18.4561V15.6645H96.242C94.072 15.6645 92.9155 16.4138 92.7769 17.9147L92.7617 18.1703C92.7617 18.7095 92.9523 19.1557 93.3313 19.5065C93.7125 19.8574 94.2322 20.0328 94.8928 20.0328V20.0306Z" fill="white"/>
<path d="M119.868 15.0798C119.868 17.6809 119.314 19.708 118.203 21.1634C117.092 22.6187 115.541 23.3464 113.551 23.3464C111.79 23.3464 110.384 22.6707 109.334 21.3215L109.139 23.0475H105.239V-0.00012207H109.574V8.26646C110.575 7.09696 111.889 6.51005 113.52 6.51005C115.5 6.51005 117.053 7.23774 118.179 8.6931C119.305 10.1485 119.866 12.1973 119.866 14.8373V15.0777L119.868 15.0798ZM115.532 14.7658C115.532 13.1263 115.272 11.9287 114.753 11.1729C114.233 10.417 113.457 10.0402 112.427 10.0402C111.047 10.0402 110.096 10.6054 109.576 11.736V18.1422C110.107 19.2813 111.066 19.8531 112.457 19.8531C113.847 19.8531 114.776 19.1622 115.218 17.7827C115.428 17.1221 115.532 16.1172 115.532 14.7658Z" fill="white"/>
<path d="M144.38 15.3594H142.376V19.3356H140.579V8.99646H144.215C145.408 8.99646 146.329 9.26501 146.978 9.79994C147.628 10.3349 147.951 11.1102 147.951 12.1238C147.951 12.8146 147.784 13.3951 147.451 13.8607C147.117 14.3285 146.651 14.6858 146.056 14.937L148.378 19.2425V19.3356H146.452L144.377 15.3594H144.38ZM142.376 13.9105H144.224C144.83 13.9105 145.302 13.7567 145.644 13.4514C145.987 13.146 146.155 12.728 146.155 12.1974C146.155 11.6668 145.997 11.2142 145.683 10.911C145.369 10.6078 144.899 10.4518 144.273 10.4432H142.376V13.9083V13.9105Z" fill="#C4C4CC"/>
<path d="M157.155 14.7205H152.908V17.9019H157.872V19.3356H151.111V8.99646H157.822V10.4453H152.908V13.2998H157.155V14.7205Z" fill="#C4C4CC"/>
<path d="M166.578 16.9295H162.572L161.734 19.3378H159.867L163.774 8.99646H165.385L169.298 19.3378H167.423L166.578 16.9295ZM163.076 15.4806H166.074L164.575 11.1903L163.076 15.4806Z" fill="#C4C4CC"/>
<path d="M179.666 15.9701C179.562 17.0725 179.155 17.9344 178.444 18.5517C177.734 19.1689 176.79 19.4786 175.611 19.4786C174.789 19.4786 174.063 19.2837 173.435 18.8917C172.807 18.5019 172.324 17.9453 171.982 17.2262C171.642 16.5072 171.464 15.6713 171.449 14.7183V13.7524C171.449 12.7778 171.622 11.918 171.967 11.1752C172.311 10.4324 172.809 9.85844 173.454 9.45562C174.1 9.05279 174.847 8.85138 175.696 8.85138C176.837 8.85138 177.756 9.16108 178.451 9.77831C179.146 10.3955 179.551 11.2705 179.666 12.4032H177.877C177.792 11.6603 177.576 11.1232 177.227 10.794C176.878 10.4648 176.37 10.3003 175.696 10.3003C174.914 10.3003 174.314 10.5861 173.896 11.1579C173.476 11.7296 173.264 12.5656 173.253 13.6701V14.5862C173.253 15.7037 173.452 16.557 173.853 17.1461C174.254 17.733 174.838 18.0276 175.611 18.0276C176.318 18.0276 176.848 17.8695 177.203 17.5511C177.558 17.2327 177.784 16.7065 177.879 15.968H179.668L179.666 15.9701Z" fill="#C4C4CC"/>
<path d="M189.992 10.4453H186.767V19.3378H184.985V10.4453H181.788V8.99646H189.992V10.4453Z" fill="#C4C4CC"/>
<path d="M195.502 8.99646H197.29V16.2473C197.29 17.237 196.981 18.0232 196.363 18.6058C195.746 19.1884 194.93 19.4786 193.916 19.4786C192.838 19.4786 192.004 19.2057 191.417 18.6621C190.83 18.1185 190.536 17.3605 190.536 16.3903H192.324C192.324 16.9403 192.461 17.3518 192.734 17.629C193.007 17.9063 193.401 18.0449 193.916 18.0449C194.399 18.0449 194.785 17.8846 195.071 17.5662C195.356 17.2457 195.499 16.8061 195.499 16.2408V8.99646H195.502Z" fill="#C4C4CC"/>
<path d="M206.202 16.674C206.202 16.2192 206.042 15.8683 205.724 15.6236C205.405 15.3789 204.827 15.1298 203.993 14.8786C203.16 14.6274 202.497 14.348 202.005 14.0405C201.063 13.4492 200.591 12.6761 200.591 11.7253C200.591 10.8915 200.931 10.205 201.611 9.6657C202.291 9.12643 203.173 8.85571 204.258 8.85571C204.977 8.85571 205.618 8.98782 206.183 9.25421C206.746 9.51843 207.19 9.89743 207.511 10.3869C207.833 10.8763 207.994 11.4199 207.994 12.0177H206.205C206.205 11.4784 206.036 11.0561 205.698 10.7507C205.36 10.4454 204.875 10.2916 204.245 10.2916C203.658 10.2916 203.201 10.4172 202.878 10.6684C202.553 10.9197 202.391 11.2705 202.391 11.7188C202.391 12.0978 202.566 12.414 202.917 12.6674C203.268 12.9208 203.844 13.1677 204.65 13.4059C205.455 13.6441 206.101 13.917 206.588 14.2224C207.075 14.5278 207.433 14.8786 207.66 15.2728C207.887 15.6691 208 16.1304 208 16.661C208 17.523 207.671 18.2073 207.01 18.7163C206.35 19.2252 205.453 19.4808 204.323 19.4808C203.573 19.4808 202.887 19.3422 202.259 19.0649C201.631 18.7877 201.143 18.4066 200.795 17.9171C200.446 17.4298 200.273 16.8602 200.273 16.2127H202.07C202.07 16.7996 202.265 17.2544 202.653 17.5771C203.041 17.8998 203.597 18.0601 204.323 18.0601C204.949 18.0601 205.416 17.9344 205.733 17.681C206.047 17.4277 206.205 17.092 206.205 16.6762L206.202 16.674Z" fill="#C4C4CC"/>
<path d="M131.883 29.09H127.532V0.500244H131.883V29.09Z" fill="#00B37E"/>
</svg>
